# xmcd
#
# Track frame offsets:
#	150
#	13605
#	25649
#	39400
#	49243
#	61424
#	70450
#	82332
#	89241
#	99604
#	112269
#	126708
#	143448
#	154164
#	161748
#	176080
#	186942
#	199097
#	213686
#	226019
#	237931
#	247476
#	266210
#	281180
#
# Disc length: 3893 seconds
# Revision: 0
# Processed by: cddbd v1.5.2PL0 Copyright (c) Steve Scherf et al.
# Submitted via: dBpowerAMP V12.0
#
DISCID=7d0f3318
DTITLE=Various Artist - 10 Years of European World of Bluegrass, Disc 2
DYEAR=2008
DGENRE=Bluegrass
TTITLE0=Kreni - Cool Night
TTITLE1=Red Wine - Winter's Come and Gone
TTITLE2=Carmel Sheerin and The Ravens - Without You
TTITLE3=Springfield - Paul and Silas
TTITLE4=Petr Brandejs Band - Zusma Je Sama Doma
TTITLE5=Roll's Boys - Rough Edges
TTITLE6=Lonesome Mountaineers - Lord, Won't You Help Me
TTITLE7=Bononia Grass - Red Fox
TTITLE8=Dan Paisley and The Southern Grass - When My Time Comes to Go
TTITLE9=The New England Bluegrass Band - Brand New Heartache
TTITLE10=Blue Cartel - Sunrise
TTITLE11=Album - Right on the Money
TTITLE12=Jussi Syren and the Groundbreakers - Llife of a Steel Driving Man
TTITLE13=Looping Brothers - New Mandolin Breakdown
TTITLE14=Stroatklinkers - Zoltkamp
TTITLE15=Blackjack - Beauty of My Dreams
TTITLE16=Claire Lynch Band - A Little Further in the Hole
TTITLE17=Goodwill - Declaration of Love
TTITLE18=Meantime - Say That You Are Wrong
TTITLE19=Rawhide - The Typewriter
TTITLE20=Sally Jones and The Sidewinders - Goin' Down the Road Feelin' Bad
TTITLE21=John Reischman and The Jaybirds - In the Darkest Hour
TTITLE22=Laurie Lewis and Her Bluegrass Pals - Wood Thrush Song
TTITLE23=Skyland - Your Long Journey
EXTD=
EXTT0=
EXTT1=
EXTT2=
EXTT3=
EXTT4=
EXTT5=
EXTT6=
EXTT7=
EXTT8=
EXTT9=
EXTT10=
EXTT11=
EXTT12=
EXTT13=
EXTT14=
EXTT15=
EXTT16=
EXTT17=
EXTT18=
EXTT19=
EXTT20=
EXTT21=
EXTT22=
EXTT23=
PLAYORDER=
